<?xml version="1.0" encoding="utf-8"?>
<!-- Generator: Adobe Illustrator 24.2.1, SVG Export Plug-In . SVG Version: 6.00 Build 0)  -->
<svg version="1.1" id="school" xmlns="http://www.w3.org/2000/svg" xmlns:xlink="http://www.w3.org/1999/xlink" x="0px" y="0px"
	 viewBox="0 0 150 150" style="enable-background:new 0 0 150 150;" xml:space="preserve">
<style type="text/css">
	.st0{fill:#3D9B46;}
	.st1{fill:#2E67B2;}
	.st2{fill:#283D95;}
</style>
<g>
	<path class="st0" d="M141.123,117.2187c0-2.8799-1.8916-5.3174-4.5058-6.1396c-0.336-3.8565-3.503-6.8946-7.4112-7.043v17.0693
		h10.6016C140.6299,120.0244,141.123,118.6806,141.123,117.2187z"/>
	<path class="st1" d="M125.5244,104.8105V70.8183h-23.042V60.3476L72.458,41.5781l-29.1221,18.208v9.2813v1.7509H20.1572v33.0625
		c0.5664,0.0039,1.1201,0.0616,1.6533,0.17c1.9805-2.1289,4.8174-3.4707,7.959-3.4688c5.3076,0.002,9.7246,3.79,10.6914,8.8145
		c3.2334,1.4716,5.4746,4.7285,5.4766,8.5107c0.0019,1.125-0.2061,2.2051-0.5743,3.2061h5.2598H64.5
		c0-0.0039-0.001-0.0079-0.001-0.0118v-17.4248c0-1.5752,1.2783-2.8496,2.8535-2.8496h10.2178c1.5732,0,2.8496,1.2744,2.8496,2.8496
		v17.4248c0,0.0039-0.001,0.0079-0.001,0.0118h15.3096h24.9228c0.0264,0,0.0508-0.0079,0.0772-0.0079h4.8056v-16.2988
		C125.5312,104.8076,125.5273,104.8095,125.5244,104.8105z M36.6582,88.8281c0,0.7334-0.5928,1.3262-1.3262,1.3262h-7.2979
		c-0.7324,0-1.3281-0.5928-1.3281-1.3262v-6.9648c0-0.7344,0.5957-1.3272,1.3281-1.3272h7.2979
		c0.7334,0,1.3262,0.5928,1.3262,1.3272V88.8281z M108.4199,81.8633c0-0.7344,0.5967-1.3272,1.3281-1.3272h7.2959
		c0.7324,0,1.3272,0.5928,1.3272,1.3272v6.9648c0,0.7334-0.5948,1.3262-1.3272,1.3262h-7.2959
		c-0.7314,0-1.3281-0.5928-1.3281-1.3262V81.8633z M98.582,81.8633v6.9648c0,0.7334-0.5938,1.3262-1.3271,1.3262H89.957
		c-0.7324,0-1.3271-0.5928-1.3271-1.3262v-6.9648c0-0.7344,0.5947-1.3272,1.3271-1.3272h7.2979
		C97.9882,80.5361,98.582,81.1289,98.582,81.8633z M56.8672,109.3281c0,0.7324-0.5938,1.3271-1.3262,1.3271h-7.2959
		c-0.7354,0-1.3291-0.5947-1.3291-1.3271v-6.9658c0-0.7344,0.5937-1.3272,1.3291-1.3272h7.2959
		c0.7324,0,1.3262,0.5928,1.3262,1.3272V109.3281z M56.8672,88.8281c0,0.7334-0.5938,1.3262-1.3262,1.3262h-7.2959
		c-0.7354,0-1.3291-0.5928-1.3291-1.3262v-6.9648c0-0.7344,0.5937-1.3272,1.3291-1.3272h7.2959
		c0.7324,0,1.3262,0.5928,1.3262,1.3272V88.8281z M77.791,88.8281c0,0.7334-0.5947,1.3262-1.3262,1.3262h-7.2969
		c-0.7343,0-1.3291-0.5928-1.3291-1.3262v-6.9648c0-0.7344,0.5948-1.3272,1.3291-1.3272h7.2969
		c0.7315,0,1.3262,0.5928,1.3262,1.3272V88.8281z M72.2988,74.664c-6.7471,0-12.2188-5.4716-12.2188-12.2187
		s5.4717-12.2188,12.2188-12.2188c6.7471,0,12.2187,5.4717,12.2187,12.2188S79.0459,74.664,72.2988,74.664z M89.957,110.6552
		c-0.7324,0-1.3271-0.5947-1.3271-1.3271v-6.9658c0-0.7344,0.5947-1.3272,1.3271-1.3272h7.2979
		c0.7333,0,1.3271,0.5928,1.3271,1.3272v6.9658c0,0.7324-0.5938,1.3271-1.3271,1.3271H89.957z M108.4199,109.3281v-6.9658
		c0-0.7344,0.5967-1.3272,1.3281-1.3272h7.2959c0.7324,0,1.3272,0.5928,1.3272,1.3272v6.9658c0,0.7324-0.5948,1.3271-1.3272,1.3271
		h-7.2959C109.0166,110.6552,108.4199,110.0605,108.4199,109.3281z"/>
	<polygon class="st2" points="17.8203,59.4013 15.0449,67.3164 39.834,67.3164 39.834,59.4013 	"/>
	<polygon class="st2" points="130.7744,67.3164 127.997,59.3984 105.9843,59.3984 105.9843,67.3164 	"/>
	<polygon class="st2" points="41.2168,57.04 41.2168,57.0381 41.3281,56.9697 72.458,37.5068 103.7011,57.0381 103.8554,56.7939 
		107.6299,50.7187 108.0615,50.0244 72.458,27.7705 36.8603,50.0244 37.292,50.7187 	"/>
	<path class="st0" d="M38.3466,112.3271l-1.1171-0.3506l-0.1016-1.166c-0.3291-3.7676-3.4941-6.7324-7.3584-6.7295
		c-2.4336,0-4.5791,1.1787-5.9326,2.9981l-0.7735,1.041l-1.2216-0.4346c-0.5557-0.1992-1.1475-0.3095-1.7559-0.3095
		c-2.6709-0.002-4.874,2.0263-5.1523,4.6201l-0.1338,1.2568l-1.2334,0.2676c-1.7989,0.3926-3.1573,1.9971-3.1553,3.9209
		c0,1.3691,0.6885,2.5762,1.7373,3.3008h4.1191h11.7598h13.6709c0.4717-0.8399,0.7373-1.8008,0.7393-2.835
		C42.4394,115.289,40.7158,113.0752,38.3466,112.3271z"/>
	<path class="st2" d="M66.6738,69.3213c-0.002,0.042-0.0127,0.083-0.0127,0.1259c0,1.2989,1.0508,2.3487,2.3477,2.3487
		c1.249,0,2.2607-0.9776,2.3339-2.21C69.4834,69.5566,67.9228,69.4492,66.6738,69.3213z"/>
	<path class="st2" d="M70.5273,54.8242c-0.581,0.0859-1.2676,0.2275-1.9482,0.4727c-1.6328,0.6074-3.085,1.6474-3.1543,3.8027
		c-0.1397,4.6914-1.0557,7.6396-1.5039,8.8183c0.3896,0.0752,0.9756,0.1768,1.7509,0.2784
		c1.5127,0.1982,3.7432,0.3955,6.6416,0.3955c3.0528,0,5.2666-0.1992,6.71-0.3975c0.6934-0.0947,1.2022-0.1885,1.5459-0.2588
		c-0.4473-1.1699-1.3711-4.124-1.5117-8.8359c-0.0723-2.1553-1.5195-3.1953-3.1416-3.8027c-0.6826-0.2481-1.377-0.3926-1.958-0.4786
		c-0.0362-0.916-0.7891-1.6533-1.7158-1.6533C71.3115,53.165,70.5605,53.9052,70.5273,54.8242z"/>
</g>
</svg>
